<svg height="25px" width="25px" version="1.1" id="Layer_1" xmlns="http://www.w3.org/2000/svg" xmlns:xlink="http://www.w3.org/1999/xlink" viewBox="0 0 256 256" xml:space="preserve">
    <rect width="100%" height="100%" fill="red" />
    <path d="M256,128c0,70.698-57.304,128-128,128S0,198.698,0,128C0,57.304,57.304,0,128,0C198.696,0,256,57.304,256,128z" fill="red" />
    <path d="M248.485,168.317L128.654,48.485c-0.001-0.001-0.001-0.001-0.001-0.001l-2.007-2.007c-0.381-0.382-0.839-0.684-1.343-0.890c-0.504-0.207-1.052-0.316-1.614-0.316H45.465c-2.314,0-4.193,1.879-4.193,4.193v186.444c0,1.418,0.751,2.605,1.448,3.343c0.221,0.315,53.976,54.069,54.268,54.269c0.071,0.101,0.179,0.164,0.257,0.257c9.611,1.888,19.586,2.89,29.753,2.889C198.695,256,301.524,219.358,248.485,168.317z" fill="red" />
    <g fill="red">
        <path d="M124.534,86.4h31.2v24.267h6.933v-27.733c0-0.463-0.095-0.915-0.268-1.335c-0.176-0.422-0.431-0.800-0.749-1.118l-34.664-34.664c-0.318-0.318-0.695-0.573-1.118-0.749c-0.420-0.172-0.872-0.268-1.335-0.268H45.465c-1.885,0-3.413,1.529-3.413,3.413v145.6c0,1.886,1.528,3.414,3.413,3.414h69.333v-51.2H77.467v-51.2h69.333v31.2C120.601,83.297,123.705,86.4,124.534,86.4z M128,68.802l36.377,36.378h-36.377V68.802z" />
        <path d="M207.785,206.183l-66.4-132.8c-1.488-2.976-6.352-2.976-7.840,0l-66.4,132.8c-0.721,1.445-0.644,3.151,0.204,4.512c0.846,1.366,2.343,2.207,3.960,2.207h132.8c-1.617,0-3.114-0.841-3.959-2.207C208.428,209.334,208.506,207.628,207.785,206.183z M131.628,203.467l58.193-116.386l58.193,116.386H131.628z" />
        <path d="M164.667,158.57v22.689c0,1.886,1.529,3.414,3.414,3.414c1.886,0,3.413-1.529,3.413-3.414v-22.689c0-1.886-1.528-3.413-3.413-3.413C166.195,155.157,164.667,156.684,164.667,158.57z" />
        <path d="M168.081,189.726c-1.886,0-3.413,1.529-3.413,3.414c0,1.886,1.529,3.414,3.413,3.414c1.885,0,3.414-1.529,3.414-3.414C171.495,191.254,169.966,189.726,168.081,189.726z" />
    </g>
</svg>
